<svg xmlns="http://www.w3.org/2000/svg" viewBox="0 0 600 480" font-family="-apple-system, BlinkMacSystemFont, 'Segoe UI', Helvetica, Arial, sans-serif">
  <defs>
    <linearGradient id="bg" x1="0" y1="0" x2="0" y2="1">
      <stop offset="0%" stop-color="#17212b"/>
      <stop offset="100%" stop-color="#0e1621"/>
    </linearGradient>
    <filter id="shadow" x="-50%" y="-50%" width="200%" height="200%">
      <feDropShadow dx="0" dy="2" stdDeviation="3" flood-color="#000" flood-opacity="0.3"/>
    </filter>
  </defs>

  <rect width="600" height="480" fill="url(#bg)"/>

  <rect x="0" y="0" width="600" height="64" fill="#0e1621"/>
  <circle cx="40" cy="32" r="22" fill="#4fae4e"/>
  <text x="40" y="40" font-size="22" fill="white" text-anchor="middle">📡</text>
  <text x="76" y="32" font-size="16" fill="white" font-weight="600">VPS Monitor Bot</text>
  <text x="76" y="50" font-size="12" fill="#7c8a96">online</text>

  <g filter="url(#shadow)">
    <rect x="20" y="90" width="460" height="180" rx="10" fill="#2b5278"/>
    <text x="36" y="118" font-size="14" fill="#8ec5ff">VPS Monitor Bot</text>
    <text x="36" y="142" font-size="14" fill="white" font-weight="700">🔔 Site A 补货 (3)</text>
    <line x1="36" y1="156" x2="464" y2="156" stroke="#3a6e9a" stroke-width="0.5"/>
    <text x="36" y="180" font-size="13" fill="white">• LA-Optimized-1c1g · $0.30/月 · 库存 9</text>
    <text x="36" y="204" font-size="13" fill="white">• HK-CMI-2c2g · $0.40/月 · 库存 5</text>
    <text x="36" y="228" font-size="13" fill="white">• JP-9929-1c512m · $0.25/月 · 库存 12</text>
    <line x1="36" y1="240" x2="464" y2="240" stroke="#3a6e9a" stroke-width="0.5"/>
    <text x="36" y="258" font-size="12" fill="#8ec5ff">⏰ 02:43 UTC+8 · #优化0_4</text>
  </g>

  <g filter="url(#shadow)">
    <rect x="20" y="290" width="380" height="120" rx="10" fill="#2b5278"/>
    <text x="36" y="318" font-size="14" fill="white" font-weight="700">🆕 Site C 新到货 (1)</text>
    <line x1="36" y1="332" x2="384" y2="332" stroke="#3a6e9a" stroke-width="0.5"/>
    <text x="36" y="354" font-size="13" fill="white">• 探針機 (official / ipv6_only)</text>
    <text x="52" y="372" font-size="12" fill="#8ec5ff">cpu 10核 / memory 809G / disk 100G</text>
    <line x1="36" y1="382" x2="384" y2="382" stroke="#3a6e9a" stroke-width="0.5"/>
    <text x="36" y="400" font-size="12" fill="#8ec5ff">⏰ 03:17 UTC+8 · #随便0_1</text>
  </g>

  <text x="300" y="460" font-size="10" fill="#7c8a96" text-anchor="middle">
    Generated by vps-monitor · shali10/vps-monitor
  </text>
</svg>